<mxfile host="app.diagrams.net" modified="2023-12-23T16:17:01.336Z" agent="Mozilla/5.0 (Windows NT 10.0; Win64; x64) AppleWebKit/537.36 (KHTML, like Gecko) Chrome/120.0.0.0 Safari/537.36" etag="DIOzFVgn1Z_RybnnOc1Q" version="22.1.11" type="device">
  <diagram name="singleton-pattern" id="eqs7JD16vDoEEscOEdrf">
    <mxGraphModel dx="793" dy="613" grid="0" gridSize="10" guides="1" tooltips="1" connect="1" arrows="1" fold="1" page="0" pageScale="1" pageWidth="850" pageHeight="1100" math="0" shadow="0">
      <root>
        <mxCell id="0" />
        <mxCell id="1" parent="0" />
        <mxCell id="7C1rUI94SHYAoZrGA9Un-16" style="edgeStyle=orthogonalEdgeStyle;rounded=0;orthogonalLoop=1;jettySize=auto;html=1;dashed=1;endArrow=none;endFill=0;" edge="1" parent="1" source="7C1rUI94SHYAoZrGA9Un-2" target="7C1rUI94SHYAoZrGA9Un-15">
          <mxGeometry relative="1" as="geometry" />
        </mxCell>
        <mxCell id="7C1rUI94SHYAoZrGA9Un-2" value="&lt;p style=&quot;margin:0px;margin-top:4px;text-align:center;&quot;&gt;&lt;i&gt;Singleton&lt;/i&gt;&lt;/p&gt;&lt;hr size=&quot;1&quot;&gt;&lt;p style=&quot;margin:0px;margin-left:4px;&quot;&gt;+ &lt;u&gt;instance: Singleton&lt;/u&gt;&lt;span style=&quot;white-space: pre;&quot;&gt;&#x9;&lt;/span&gt;&lt;span style=&quot;white-space: pre;&quot;&gt;&#x9;&lt;/span&gt;&lt;span style=&quot;white-space: pre;&quot;&gt;&#x9;&lt;/span&gt;&lt;br&gt;&lt;/p&gt;&lt;hr size=&quot;1&quot;&gt;&lt;p style=&quot;margin:0px;margin-left:4px;&quot;&gt;- Singleton()&lt;/p&gt;&lt;p style=&quot;margin:0px;margin-left:4px;&quot;&gt;+ &lt;u&gt;getInstance(): Singleton&lt;/u&gt;&lt;/p&gt;" style="verticalAlign=top;align=left;overflow=fill;fontSize=12;fontFamily=Helvetica;html=1;whiteSpace=wrap;strokeWidth=3;rounded=1;glass=0;" vertex="1" parent="1">
          <mxGeometry x="105" y="102" width="202" height="96" as="geometry" />
        </mxCell>
        <mxCell id="7C1rUI94SHYAoZrGA9Un-3" value="Client" style="html=1;whiteSpace=wrap;fontSize=16;rounded=1;strokeWidth=2;" vertex="1" parent="1">
          <mxGeometry x="-90" y="158" width="110" height="50" as="geometry" />
        </mxCell>
        <mxCell id="7C1rUI94SHYAoZrGA9Un-4" style="edgeStyle=orthogonalEdgeStyle;rounded=0;orthogonalLoop=1;jettySize=auto;html=1;entryX=1;entryY=0.15;entryDx=0;entryDy=0;entryPerimeter=0;" edge="1" parent="1" source="7C1rUI94SHYAoZrGA9Un-2" target="7C1rUI94SHYAoZrGA9Un-2">
          <mxGeometry relative="1" as="geometry">
            <Array as="points">
              <mxPoint x="327" y="144" />
              <mxPoint x="327" y="116" />
            </Array>
          </mxGeometry>
        </mxCell>
        <mxCell id="7C1rUI94SHYAoZrGA9Un-14" style="edgeStyle=orthogonalEdgeStyle;rounded=0;orthogonalLoop=1;jettySize=auto;html=1;entryX=0.002;entryY=0.842;entryDx=0;entryDy=0;entryPerimeter=0;" edge="1" parent="1" source="7C1rUI94SHYAoZrGA9Un-3" target="7C1rUI94SHYAoZrGA9Un-2">
          <mxGeometry relative="1" as="geometry" />
        </mxCell>
        <mxCell id="7C1rUI94SHYAoZrGA9Un-15" value="&lt;b&gt;if &lt;/b&gt;(instance == &lt;b&gt;null&lt;/b&gt;) {&lt;br&gt;&lt;span style=&quot;white-space: pre;&quot;&gt;&#x9;&lt;/span&gt;// Note: if you are creating an app with&amp;nbsp;&lt;br&gt;&lt;span style=&quot;white-space: pre;&quot;&gt;&#x9;&lt;/span&gt;// multithreading support, you should place&lt;br&gt;&lt;span style=&quot;white-space: pre;&quot;&gt;&#x9;&lt;/span&gt;// a thread lock here.&lt;br&gt;&lt;span style=&quot;white-space: pre;&quot;&gt;&#x9;&lt;/span&gt;instance = &lt;b&gt;new&amp;nbsp;&lt;/b&gt;&amp;nbsp;Singleton()&lt;br&gt;}&lt;br&gt;&lt;b&gt;return&amp;nbsp;&lt;/b&gt;instance" style="shape=note;whiteSpace=wrap;html=1;backgroundOutline=1;darkOpacity=0.05;fillColor=#f5f5f5;fontColor=#333333;strokeColor=#666666;align=left;" vertex="1" parent="1">
          <mxGeometry x="71.5" y="275" width="269" height="118" as="geometry" />
        </mxCell>
      </root>
    </mxGraphModel>
  </diagram>
</mxfile>
